<svg xmlns="http://www.w3.org/2000/svg" viewBox="0 0 561 808"><defs><style>.cls-1,.cls-2{fill:#414042;}.cls-2{font-size:290.86px;font-family:BebasNeue-Regular, Bebas Neue;}</style></defs><title>Asset 1</title><g id="Layer_2" data-name="Layer 2"><g id="Layer_1-2" data-name="Layer 1"><path class="cls-1" d="M338.58,9,552,188.25V765.49A33.55,33.55,0,0,1,518.48,799h-476A33.55,33.55,0,0,1,9,765.49v-723A33.56,33.56,0,0,1,42.52,9H338.58m3.28-9H42.52A42.52,42.52,0,0,0,0,42.52v723A42.51,42.51,0,0,0,42.52,808h476A42.52,42.52,0,0,0,561,765.49V184.06L341.86,0Z"/><path class="cls-1" d="M350.86,19.31,536.29,175.06H384.38a33.56,33.56,0,0,1-33.52-33.52V19.31M341.86,0V141.54a42.52,42.52,0,0,0,42.52,42.52H561L341.86,0Z"/><text class="cls-2" transform="translate(227.71 498.53)">?</text></g></g></svg>